<?xml version="1.0" encoding="UTF-8" standalone="no"?>
<!DOCTYPE svg PUBLIC "-//W3C//DTD SVG 1.1//EN"
 "http://www.w3.org/Graphics/SVG/1.1/DTD/svg11.dtd">
<!-- Generated by graphviz version 2.38.0 (20140413.2041)
 -->
<!-- Title: yalla::DataRegister::read Pages: 1 -->
<svg width="257pt" height="37pt"
 viewBox="0.00 0.00 256.90 37.00" xmlns="http://www.w3.org/2000/svg" xmlns:xlink="http://www.w3.org/1999/xlink">
<g id="graph0" class="graph" transform="scale(1 1) rotate(0) translate(4 33)">
<title>yalla::DataRegister::read</title>
<polygon fill="white" stroke="none" points="-4,4 -4,-33 252.903,-33 252.903,4 -4,4"/>
<!-- Node1 -->
<g id="node1" class="node"><title>Node1</title>
<polygon fill="#bfbfbf" stroke="black" points="0,-0.5 0,-28.5 100.482,-28.5 100.482,-0.5 0,-0.5"/>
<text text-anchor="start" x="8" y="-16.5" font-family="Helvetica,sans-Serif" font-size="10.00">yalla::DataRegister</text>
<text text-anchor="middle" x="50.2412" y="-6.5" font-family="Helvetica,sans-Serif" font-size="10.00">::read</text>
</g>
<!-- Node2 -->
<g id="node2" class="node"><title>Node2</title>
<g id="a_node2"><a xlink:href="../../d2/d40/classyalla_1_1_i_o_m_m_ptr.html#a9d968a9c42e7ad0047ccda6b6774247f" target="_top" xlink:title="Read value from addr. ">
<polygon fill="white" stroke="black" points="136.482,-0.5 136.482,-28.5 248.903,-28.5 248.903,-0.5 136.482,-0.5"/>
<text text-anchor="start" x="144.482" y="-16.5" font-family="Helvetica,sans-Serif" font-size="10.00">yalla::IOMMPtr&lt; uint8</text>
<text text-anchor="middle" x="192.693" y="-6.5" font-family="Helvetica,sans-Serif" font-size="10.00">_t, addr &gt;::read</text>
</a>
</g>
</g>
<!-- Node1&#45;&gt;Node2 -->
<g id="edge1" class="edge"><title>Node1&#45;&gt;Node2</title>
<path fill="none" stroke="midnightblue" d="M100.759,-14.5C109.047,-14.5 117.757,-14.5 126.369,-14.5"/>
<polygon fill="midnightblue" stroke="midnightblue" points="126.402,-18.0001 136.402,-14.5 126.402,-11.0001 126.402,-18.0001"/>
</g>
</g>
</svg>
