<?xml version="1.0" encoding="UTF-8" standalone="no"?>
<!DOCTYPE svg PUBLIC "-//W3C//DTD SVG 1.1//EN"
 "http://www.w3.org/Graphics/SVG/1.1/DTD/svg11.dtd">
<!-- Generated by graphviz version 2.38.0 (20140413.2041)
 -->
<!-- Title: yalla::ReservedBit&lt; Reg, idx, regAndMask &gt; Pages: 1 -->
<!--zoomable 84 -->
<svg id="main" version="1.1" xmlns="http://www.w3.org/2000/svg" xmlns:xlink="http://www.w3.org/1999/xlink" xml:space="preserve" onload="init(evt)">
<style type="text/css"><![CDATA[
.edge:hover path { stroke: red; }
.edge:hover polygon { stroke: red; fill: red; }
]]></style>
<script type="text/javascript"><![CDATA[
var edges = document.getElementsByTagName('g');
if (edges && edges.length) {
  for (var i=0;i<edges.length;i++) {
    if (edges[i].id.substr(0,4)=='edge') {
      edges[i].setAttribute('class','edge');
    }
  }
}
]]></script>
        <defs>
                <circle id="rim" cx="0" cy="0" r="7"/>
                <circle id="rim2" cx="0" cy="0" r="3.5"/>
                <g id="zoomPlus">
                        <use xlink:href="#rim" fill="#404040">
                                <set attributeName="fill" to="#808080" begin="zoomplus.mouseover" end="zoomplus.mouseout"/>
                        </use>
                        <path d="M-4,0h8M0,-4v8" fill="none" stroke="white" stroke-width="1.5" pointer-events="none"/>
                </g>
                <g id="zoomMin">
                        <use xlink:href="#rim" fill="#404040">
                                <set attributeName="fill" to="#808080" begin="zoomminus.mouseover" end="zoomminus.mouseout"/>
                        </use>
                        <path d="M-4,0h8" fill="none" stroke="white" stroke-width="1.5" pointer-events="none"/>
                </g>
                <g id="dirArrow">
                        <path fill="none" stroke="white" stroke-width="1.5" d="M0,-3.0v7 M-2.5,-0.5L0,-3.0L2.5,-0.5"/>
                </g>
               <g id="resetDef">
                       <use xlink:href="#rim2" fill="#404040">
                               <set attributeName="fill" to="#808080" begin="reset.mouseover" end="reset.mouseout"/>
                       </use>
               </g>
        </defs>

<script type="text/javascript">
var viewWidth = 642;
var viewHeight = 84;
var sectionId = 'dynsection-0';
</script>
<script xlink:href="../../svgpan.js"/>
<svg id="graph" class="graph">
<g id="viewport">
<title>yalla::ReservedBit&lt; Reg, idx, regAndMask &gt;</title>
<polygon fill="white" stroke="none" points="-4,4 -4,-80 638.461,-80 638.461,4 -4,4"/>
<!-- Node1 -->
<g id="node1" class="node"><title>Node1</title>
<polygon fill="#bfbfbf" stroke="black" points="0,-23.5 0,-51.5 131.615,-51.5 131.615,-23.5 0,-23.5"/>
<text text-anchor="start" x="8" y="-39.5" font-family="Helvetica,sans-Serif" font-size="10.00">yalla::ReservedBit</text>
<text text-anchor="middle" x="65.8076" y="-29.5" font-family="Helvetica,sans-Serif" font-size="10.00">&lt; Reg, idx, regAndMask &gt;</text>
</g>
<!-- Node2 -->
<g id="node2" class="node"><title>Node2</title>
<g id="a_node2"><a xlink:href="../../de/d19/structyalla_1_1_read_only_bit.html" target="_top" xlink:title="yalla::ReadOnlyBit\l\&lt; Reg, idx, regAndMask \&gt;">
<polygon fill="white" stroke="black" points="167.615,-23.5 167.615,-51.5 299.23,-51.5 299.23,-23.5 167.615,-23.5"/>
<text text-anchor="start" x="175.615" y="-39.5" font-family="Helvetica,sans-Serif" font-size="10.00">yalla::ReadOnlyBit</text>
<text text-anchor="middle" x="233.423" y="-29.5" font-family="Helvetica,sans-Serif" font-size="10.00">&lt; Reg, idx, regAndMask &gt;</text>
</a>
</g>
</g>
<!-- Node1&#45;&gt;Node2 -->
<g id="edge1" class="edge"><title>Node1&#45;&gt;Node2</title>
<path fill="none" stroke="midnightblue" d="M142.026,-37.5C150.483,-37.5 159.046,-37.5 167.358,-37.5"/>
<polygon fill="midnightblue" stroke="midnightblue" points="141.788,-34.0001 131.788,-37.5 141.788,-41.0001 141.788,-34.0001"/>
</g>
<!-- Node3 -->
<g id="node3" class="node"><title>Node3</title>
<g id="a_node3"><a xlink:href="../../d1/d96/structyalla_1_1_status_bit_clear_by0.html" target="_top" xlink:title="yalla::StatusBitClearBy0\l\&lt; Reg, idx, regAndMask \&gt;">
<polygon fill="white" stroke="black" points="335.23,-47.5 335.23,-75.5 466.846,-75.5 466.846,-47.5 335.23,-47.5"/>
<text text-anchor="start" x="343.23" y="-63.5" font-family="Helvetica,sans-Serif" font-size="10.00">yalla::StatusBitClearBy0</text>
<text text-anchor="middle" x="401.038" y="-53.5" font-family="Helvetica,sans-Serif" font-size="10.00">&lt; Reg, idx, regAndMask &gt;</text>
</a>
</g>
</g>
<!-- Node2&#45;&gt;Node3 -->
<g id="edge2" class="edge"><title>Node2&#45;&gt;Node3</title>
<path fill="none" stroke="midnightblue" d="M309.363,-48.3598C317.91,-49.5984 326.569,-50.8534 334.973,-52.0712"/>
<polygon fill="midnightblue" stroke="midnightblue" points="309.802,-44.887 299.403,-46.9166 308.798,-51.8146 309.802,-44.887"/>
</g>
<!-- Node5 -->
<g id="node5" class="node"><title>Node5</title>
<g id="a_node5"><a xlink:href="../../d5/dfc/structyalla_1_1_status_bit_clear_by1.html" target="_top" xlink:title="yalla::StatusBitClearBy1\l\&lt; Reg, idx, regAndMask \&gt;">
<polygon fill="white" stroke="black" points="335.23,-0.5 335.23,-28.5 466.846,-28.5 466.846,-0.5 335.23,-0.5"/>
<text text-anchor="start" x="343.23" y="-16.5" font-family="Helvetica,sans-Serif" font-size="10.00">yalla::StatusBitClearBy1</text>
<text text-anchor="middle" x="401.038" y="-6.5" font-family="Helvetica,sans-Serif" font-size="10.00">&lt; Reg, idx, regAndMask &gt;</text>
</a>
</g>
</g>
<!-- Node2&#45;&gt;Node5 -->
<g id="edge4" class="edge"><title>Node2&#45;&gt;Node5</title>
<path fill="none" stroke="midnightblue" d="M309.363,-27.0927C317.91,-25.9057 326.569,-24.703 334.973,-23.5359"/>
<polygon fill="midnightblue" stroke="midnightblue" points="308.827,-23.6334 299.403,-28.4758 309.789,-30.5669 308.827,-23.6334"/>
</g>
<!-- Node4 -->
<g id="node4" class="node"><title>Node4</title>
<g id="a_node4"><a xlink:href="../../d6/d87/structyalla_1_1_read_write_bit.html" target="_top" xlink:title="yalla::ReadWriteBit\l\&lt; Reg, idx, regAndMask \&gt;">
<polygon fill="white" stroke="black" points="502.846,-47.5 502.846,-75.5 634.461,-75.5 634.461,-47.5 502.846,-47.5"/>
<text text-anchor="start" x="510.846" y="-63.5" font-family="Helvetica,sans-Serif" font-size="10.00">yalla::ReadWriteBit</text>
<text text-anchor="middle" x="568.653" y="-53.5" font-family="Helvetica,sans-Serif" font-size="10.00">&lt; Reg, idx, regAndMask &gt;</text>
</a>
</g>
</g>
<!-- Node3&#45;&gt;Node4 -->
<g id="edge3" class="edge"><title>Node3&#45;&gt;Node4</title>
<path fill="none" stroke="midnightblue" d="M477.257,-61.5C485.713,-61.5 494.276,-61.5 502.589,-61.5"/>
<polygon fill="midnightblue" stroke="midnightblue" points="477.018,-58.0001 467.018,-61.5 477.018,-65.0001 477.018,-58.0001"/>
</g>
</g>
</svg>
        <g id="navigator" transform="translate(0 0)" fill="#404254">
                <rect fill="#f2f5e9" fill-opacity="0.5" stroke="#606060" stroke-width=".5" x="0" y="0" width="60" height="60"/>
                <use id="zoomplus" xlink:href="#zoomPlus" x="17" y="9" onmousedown="handleZoom(evt,'in')"/>
                <use id="zoomminus" xlink:href="#zoomMin" x="42" y="9" onmousedown="handleZoom(evt,'out')"/>
                <use id="reset" xlink:href="#resetDef" x="30" y="36" onmousedown="handleReset()"/>
                <g id="arrowUp" xlink:href="#dirArrow" transform="translate(30 24)" onmousedown="handlePan(0,-1)">
                  <use xlink:href="#rim" fill="#404040">
                        <set attributeName="fill" to="#808080" begin="arrowUp.mouseover" end="arrowUp.mouseout"/>
                  </use>
                  <path fill="none" stroke="white" stroke-width="1.5" d="M0,-3.0v7 M-2.5,-0.5L0,-3.0L2.5,-0.5"/>
                </g>
                <g id="arrowRight" xlink:href="#dirArrow" transform="rotate(90) translate(36 -43)" onmousedown="handlePan(1,0)">
                  <use xlink:href="#rim" fill="#404040">
                        <set attributeName="fill" to="#808080" begin="arrowRight.mouseover" end="arrowRight.mouseout"/>
                  </use>
                  <path fill="none" stroke="white" stroke-width="1.5" d="M0,-3.0v7 M-2.5,-0.5L0,-3.0L2.5,-0.5"/>
                </g>
                <g id="arrowDown" xlink:href="#dirArrow" transform="rotate(180) translate(-30 -48)" onmousedown="handlePan(0,1)">
                  <use xlink:href="#rim" fill="#404040">
                        <set attributeName="fill" to="#808080" begin="arrowDown.mouseover" end="arrowDown.mouseout"/>
                  </use>
                  <path fill="none" stroke="white" stroke-width="1.5" d="M0,-3.0v7 M-2.5,-0.5L0,-3.0L2.5,-0.5"/>
                </g>
                <g id="arrowLeft" xlink:href="#dirArrow" transform="rotate(270) translate(-36 17)" onmousedown="handlePan(-1,0)">
                  <use xlink:href="#rim" fill="#404040">
                        <set attributeName="fill" to="#808080" begin="arrowLeft.mouseover" end="arrowLeft.mouseout"/>
                  </use>
                  <path fill="none" stroke="white" stroke-width="1.5" d="M0,-3.0v7 M-2.5,-0.5L0,-3.0L2.5,-0.5"/>
                </g>
        </g>
        <svg viewBox="0 0 15 15" width="100%" height="30px" preserveAspectRatio="xMaxYMin meet">
         <g id="arrow_out" transform="scale(0.3 0.3)">
          <a xlink:href="structyalla_1_1_reserved_bit__inherit__graph_org.svg" target="_base">
           <rect id="button" ry="5" rx="5" y="6" x="6" height="38" width="38"
                fill="#f2f5e9" fill-opacity="0.5" stroke="#606060" stroke-width="1.0"/>
           <path id="arrow"
             d="M 11.500037,31.436501 C 11.940474,20.09759 22.043105,11.32322 32.158766,21.979434 L 37.068811,17.246167 C 37.068811,17.246167 37.088388,32 37.088388,32 L 22.160133,31.978069 C 22.160133,31.978069 26.997745,27.140456 26.997745,27.140456 C 18.528582,18.264221 13.291696,25.230495 11.500037,31.436501 z"
             style="fill:#404040;"/>
          </a>
         </g>
        </svg>
</svg>
