<?xml version="1.0" encoding="UTF-8" standalone="no"?>
<!DOCTYPE svg PUBLIC "-//W3C//DTD SVG 1.1//EN"
 "http://www.w3.org/Graphics/SVG/1.1/DTD/svg11.dtd">
<!-- Generated by graphviz version 2.38.0 (20140413.2041)
 -->
<!-- Title: yalla::ReadOnlyBit&lt; Reg, idx, regAndMask &gt; Pages: 1 -->
<svg width="642pt" height="84pt"
 viewBox="0.00 0.00 642.46 84.00" xmlns="http://www.w3.org/2000/svg" xmlns:xlink="http://www.w3.org/1999/xlink">
<g id="graph0" class="graph" transform="scale(1 1) rotate(0) translate(4 80)">
<title>yalla::ReadOnlyBit&lt; Reg, idx, regAndMask &gt;</title>
<polygon fill="white" stroke="none" points="-4,4 -4,-80 638.461,-80 638.461,4 -4,4"/>
<!-- Node1 -->
<g id="node1" class="node"><title>Node1</title>
<polygon fill="#bfbfbf" stroke="black" points="167.615,-23.5 167.615,-51.5 299.23,-51.5 299.23,-23.5 167.615,-23.5"/>
<text text-anchor="start" x="175.615" y="-39.5" font-family="Helvetica,sans-Serif" font-size="10.00">yalla::ReadOnlyBit</text>
<text text-anchor="middle" x="233.423" y="-29.5" font-family="Helvetica,sans-Serif" font-size="10.00">&lt; Reg, idx, regAndMask &gt;</text>
</g>
<!-- Node3 -->
<g id="node3" class="node"><title>Node3</title>
<g id="a_node3"><a xlink:href="../../d1/d96/structyalla_1_1_status_bit_clear_by0.html" target="_top" xlink:title="yalla::StatusBitClearBy0\l\&lt; Reg, idx, regAndMask \&gt;">
<polygon fill="white" stroke="black" points="335.23,-47.5 335.23,-75.5 466.846,-75.5 466.846,-47.5 335.23,-47.5"/>
<text text-anchor="start" x="343.23" y="-63.5" font-family="Helvetica,sans-Serif" font-size="10.00">yalla::StatusBitClearBy0</text>
<text text-anchor="middle" x="401.038" y="-53.5" font-family="Helvetica,sans-Serif" font-size="10.00">&lt; Reg, idx, regAndMask &gt;</text>
</a>
</g>
</g>
<!-- Node1&#45;&gt;Node3 -->
<g id="edge2" class="edge"><title>Node1&#45;&gt;Node3</title>
<path fill="none" stroke="midnightblue" d="M309.363,-48.3598C317.91,-49.5984 326.569,-50.8534 334.973,-52.0712"/>
<polygon fill="midnightblue" stroke="midnightblue" points="309.802,-44.887 299.403,-46.9166 308.798,-51.8146 309.802,-44.887"/>
</g>
<!-- Node5 -->
<g id="node5" class="node"><title>Node5</title>
<g id="a_node5"><a xlink:href="../../d5/dfc/structyalla_1_1_status_bit_clear_by1.html" target="_top" xlink:title="yalla::StatusBitClearBy1\l\&lt; Reg, idx, regAndMask \&gt;">
<polygon fill="white" stroke="black" points="335.23,-0.5 335.23,-28.5 466.846,-28.5 466.846,-0.5 335.23,-0.5"/>
<text text-anchor="start" x="343.23" y="-16.5" font-family="Helvetica,sans-Serif" font-size="10.00">yalla::StatusBitClearBy1</text>
<text text-anchor="middle" x="401.038" y="-6.5" font-family="Helvetica,sans-Serif" font-size="10.00">&lt; Reg, idx, regAndMask &gt;</text>
</a>
</g>
</g>
<!-- Node1&#45;&gt;Node5 -->
<g id="edge4" class="edge"><title>Node1&#45;&gt;Node5</title>
<path fill="none" stroke="midnightblue" d="M309.363,-27.0927C317.91,-25.9057 326.569,-24.703 334.973,-23.5359"/>
<polygon fill="midnightblue" stroke="midnightblue" points="308.827,-23.6334 299.403,-28.4758 309.789,-30.5669 308.827,-23.6334"/>
</g>
<!-- Node2 -->
<g id="node2" class="node"><title>Node2</title>
<g id="a_node2"><a xlink:href="../../d1/d31/structyalla_1_1_reserved_bit.html" target="_top" xlink:title="yalla::ReservedBit\l\&lt; Reg, idx, regAndMask \&gt;">
<polygon fill="white" stroke="black" points="0,-23.5 0,-51.5 131.615,-51.5 131.615,-23.5 0,-23.5"/>
<text text-anchor="start" x="8" y="-39.5" font-family="Helvetica,sans-Serif" font-size="10.00">yalla::ReservedBit</text>
<text text-anchor="middle" x="65.8076" y="-29.5" font-family="Helvetica,sans-Serif" font-size="10.00">&lt; Reg, idx, regAndMask &gt;</text>
</a>
</g>
</g>
<!-- Node2&#45;&gt;Node1 -->
<g id="edge1" class="edge"><title>Node2&#45;&gt;Node1</title>
<path fill="none" stroke="midnightblue" d="M142.026,-37.5C150.483,-37.5 159.046,-37.5 167.358,-37.5"/>
<polygon fill="midnightblue" stroke="midnightblue" points="141.788,-34.0001 131.788,-37.5 141.788,-41.0001 141.788,-34.0001"/>
</g>
<!-- Node4 -->
<g id="node4" class="node"><title>Node4</title>
<g id="a_node4"><a xlink:href="../../d6/d87/structyalla_1_1_read_write_bit.html" target="_top" xlink:title="yalla::ReadWriteBit\l\&lt; Reg, idx, regAndMask \&gt;">
<polygon fill="white" stroke="black" points="502.846,-47.5 502.846,-75.5 634.461,-75.5 634.461,-47.5 502.846,-47.5"/>
<text text-anchor="start" x="510.846" y="-63.5" font-family="Helvetica,sans-Serif" font-size="10.00">yalla::ReadWriteBit</text>
<text text-anchor="middle" x="568.653" y="-53.5" font-family="Helvetica,sans-Serif" font-size="10.00">&lt; Reg, idx, regAndMask &gt;</text>
</a>
</g>
</g>
<!-- Node3&#45;&gt;Node4 -->
<g id="edge3" class="edge"><title>Node3&#45;&gt;Node4</title>
<path fill="none" stroke="midnightblue" d="M477.257,-61.5C485.713,-61.5 494.276,-61.5 502.589,-61.5"/>
<polygon fill="midnightblue" stroke="midnightblue" points="477.018,-58.0001 467.018,-61.5 477.018,-65.0001 477.018,-58.0001"/>
</g>
</g>
</svg>
