<?xml version="1.0" encoding="UTF-8" standalone="no"?>
<!DOCTYPE svg PUBLIC "-//W3C//DTD SVG 1.1//EN"
 "http://www.w3.org/Graphics/SVG/1.1/DTD/svg11.dtd">
<!-- Generated by graphviz version 2.38.0 (20140413.2041)
 -->
<!-- Title: include/yalla Pages: 1 -->
<svg width="326pt" height="110pt"
 viewBox="0.00 0.00 326.00 110.00" xmlns="http://www.w3.org/2000/svg" xmlns:xlink="http://www.w3.org/1999/xlink">
<g id="graph0" class="graph" transform="scale(1 1) rotate(0) translate(4 106)">
<title>include/yalla</title>
<polygon fill="white" stroke="none" points="-4,4 -4,-106 322,-106 322,4 -4,4"/>
<g id="clust1" class="cluster"><title>clusterdir_3451fe5d3fcb3b42b61262e4100a1873</title>
<g id="a_clust1"><a xlink:href="dir_3451fe5d3fcb3b42b61262e4100a1873.html" target="_top" xlink:title="include">
<polygon fill="#ddddee" stroke="black" points="8,-8 8,-94 310,-94 310,-8 8,-8"/>
<text text-anchor="middle" x="159" y="-82" font-family="Helvetica,sans-Serif" font-size="10.00">include</text>
</a>
</g>
</g>
<g id="clust2" class="cluster"><title>clusterdir_a55443e4feaab4c0de88fe36b3fe133a</title>
<g id="a_clust2"><a xlink:href="dir_a55443e4feaab4c0de88fe36b3fe133a.html" target="_top">
<polygon fill="#eeeeff" stroke="black" points="16,-16 16,-68 302,-68 302,-16 16,-16"/>
</a>
</g>
</g>
<!-- dir_a55443e4feaab4c0de88fe36b3fe133a -->
<g id="node1" class="node"><title>dir_a55443e4feaab4c0de88fe36b3fe133a</title>
<text text-anchor="middle" x="267" y="-39" font-family="Helvetica,sans-Serif" font-size="10.00">yalla</text>
</g>
<!-- dir_07aabdd1ff8477c9ef9d41a6e35f8b4d -->
<g id="node2" class="node"><title>dir_07aabdd1ff8477c9ef9d41a6e35f8b4d</title>
<g id="a_node2"><a xlink:href="dir_07aabdd1ff8477c9ef9d41a6e35f8b4d.html" target="_top" xlink:title="avr">
<polygon fill="white" stroke="black" points="222,-60 168,-60 168,-24 222,-24 222,-60"/>
<text text-anchor="middle" x="195" y="-39" font-family="Helvetica,sans-Serif" font-size="10.00">avr</text>
</a>
</g>
</g>
<!-- dir_c1ad6b788c92a27e94dc8fb6e1fe7821 -->
<g id="node3" class="node"><title>dir_c1ad6b788c92a27e94dc8fb6e1fe7821</title>
<g id="a_node3"><a xlink:href="dir_c1ad6b788c92a27e94dc8fb6e1fe7821.html" target="_top" xlink:title="device">
<polygon fill="white" stroke="red" points="150,-60 96,-60 96,-24 150,-24 150,-60"/>
<text text-anchor="middle" x="123" y="-39" font-family="Helvetica,sans-Serif" font-size="10.00">device</text>
</a>
</g>
</g>
<!-- dir_0554bb35ed63979a81745eab475789e3 -->
<g id="node4" class="node"><title>dir_0554bb35ed63979a81745eab475789e3</title>
<g id="a_node4"><a xlink:href="dir_0554bb35ed63979a81745eab475789e3.html" target="_top" xlink:title="util">
<polygon fill="white" stroke="black" points="78,-60 24,-60 24,-24 78,-24 78,-60"/>
<text text-anchor="middle" x="51" y="-39" font-family="Helvetica,sans-Serif" font-size="10.00">util</text>
</a>
</g>
</g>
</g>
</svg>
