<?xml version="1.0" encoding="UTF-8" standalone="no"?>
<!DOCTYPE svg PUBLIC "-//W3C//DTD SVG 1.1//EN"
 "http://www.w3.org/Graphics/SVG/1.1/DTD/svg11.dtd">
<!-- Generated by graphviz version 2.38.0 (20140413.2041)
 -->
<!-- Title: src/test/avr Pages: 1 -->
<svg width="254pt" height="110pt"
 viewBox="0.00 0.00 254.00 110.00" xmlns="http://www.w3.org/2000/svg" xmlns:xlink="http://www.w3.org/1999/xlink">
<g id="graph0" class="graph" transform="scale(1 1) rotate(0) translate(4 106)">
<title>src/test/avr</title>
<polygon fill="white" stroke="none" points="-4,4 -4,-106 250,-106 250,4 -4,4"/>
<g id="clust1" class="cluster"><title>clusterdir_84e3799762592a245ca4f4fb71100cf0</title>
<g id="a_clust1"><a xlink:href="dir_84e3799762592a245ca4f4fb71100cf0.html" target="_top" xlink:title="test">
<polygon fill="#ddddee" stroke="black" points="8,-8 8,-94 238,-94 238,-8 8,-8"/>
<text text-anchor="middle" x="123" y="-82" font-family="Helvetica,sans-Serif" font-size="10.00">test</text>
</a>
</g>
</g>
<g id="clust2" class="cluster"><title>clusterdir_2a6d86c8b605efbf50303d808155cdf4</title>
<g id="a_clust2"><a xlink:href="dir_2a6d86c8b605efbf50303d808155cdf4.html" target="_top">
<polygon fill="#eeeeff" stroke="black" points="16,-16 16,-68 230,-68 230,-16 16,-16"/>
</a>
</g>
</g>
<!-- dir_2a6d86c8b605efbf50303d808155cdf4 -->
<g id="node1" class="node"><title>dir_2a6d86c8b605efbf50303d808155cdf4</title>
<text text-anchor="middle" x="195" y="-39" font-family="Helvetica,sans-Serif" font-size="10.00">avr</text>
</g>
<!-- dir_eaba047b5c08f074e94a928a503b4694 -->
<g id="node2" class="node"><title>dir_eaba047b5c08f074e94a928a503b4694</title>
<g id="a_node2"><a xlink:href="dir_eaba047b5c08f074e94a928a503b4694.html" target="_top" xlink:title="iomm">
<polygon fill="white" stroke="black" points="150,-60 96,-60 96,-24 150,-24 150,-60"/>
<text text-anchor="middle" x="123" y="-39" font-family="Helvetica,sans-Serif" font-size="10.00">iomm</text>
</a>
</g>
</g>
<!-- dir_9a26dc911173fcccd2460272472b7ace -->
<g id="node3" class="node"><title>dir_9a26dc911173fcccd2460272472b7ace</title>
<g id="a_node3"><a xlink:href="dir_9a26dc911173fcccd2460272472b7ace.html" target="_top" xlink:title="register">
<polygon fill="white" stroke="black" points="78,-60 24,-60 24,-24 78,-24 78,-60"/>
<text text-anchor="middle" x="51" y="-39" font-family="Helvetica,sans-Serif" font-size="10.00">register</text>
</a>
</g>
</g>
</g>
</svg>
