<?xml version="1.0" encoding="UTF-8" standalone="no"?>
<!DOCTYPE svg PUBLIC "-//W3C//DTD SVG 1.1//EN"
 "http://www.w3.org/Graphics/SVG/1.1/DTD/svg11.dtd">
<!-- Generated by graphviz version 2.38.0 (20140413.2041)
 -->
<!-- Title: Graphical Class Hierarchy Pages: 1 -->
<svg width="272pt" height="67pt"
 viewBox="0.00 0.00 272.09 67.00" xmlns="http://www.w3.org/2000/svg" xmlns:xlink="http://www.w3.org/1999/xlink">
<g id="graph0" class="graph" transform="scale(1 1) rotate(0) translate(4 63)">
<title>Graphical Class Hierarchy</title>
<polygon fill="white" stroke="none" points="-4,4 -4,-63 268.094,-63 268.094,4 -4,4"/>
<!-- Node1 -->
<g id="node1" class="node"><title>Node1</title>
<g id="a_node1"><a xlink:href="da/d41/classyalla_1_1_register.html" target="_top" xlink:title="yalla::Register\&lt; 0x40,\l ReadWriteBit, ReadWriteBit,\l ReadWriteBit, ReadWriteBit,\l ReadWriteBit, ReadWriteBit,\l ReadWriteBit, ReadWriteBit \&gt;">
<polygon fill="white" stroke="black" points="0,-0.5 0,-58.5 150.414,-58.5 150.414,-0.5 0,-0.5"/>
<text text-anchor="start" x="8" y="-46.5" font-family="Helvetica,sans-Serif" font-size="10.00">yalla::Register&lt; 0x40,</text>
<text text-anchor="start" x="8" y="-36.5" font-family="Helvetica,sans-Serif" font-size="10.00"> ReadWriteBit, ReadWriteBit,</text>
<text text-anchor="start" x="8" y="-26.5" font-family="Helvetica,sans-Serif" font-size="10.00"> ReadWriteBit, ReadWriteBit,</text>
<text text-anchor="start" x="8" y="-16.5" font-family="Helvetica,sans-Serif" font-size="10.00"> ReadWriteBit, ReadWriteBit,</text>
<text text-anchor="middle" x="75.207" y="-6.5" font-family="Helvetica,sans-Serif" font-size="10.00"> ReadWriteBit, ReadWriteBit &gt;</text>
</a>
</g>
</g>
<!-- Node2 -->
<g id="node2" class="node"><title>Node2</title>
<g id="a_node2"><a xlink:href="d6/d97/classyalla_1_1_u_c_s_r_c.html" target="_top" xlink:title="yalla::UCSRC">
<polygon fill="white" stroke="black" points="186.414,-20.5 186.414,-38.5 264.094,-38.5 264.094,-20.5 186.414,-20.5"/>
<text text-anchor="middle" x="225.254" y="-26.5" font-family="Helvetica,sans-Serif" font-size="10.00">yalla::UCSRC</text>
</a>
</g>
</g>
<!-- Node1&#45;&gt;Node2 -->
<g id="edge1" class="edge"><title>Node1&#45;&gt;Node2</title>
<path fill="none" stroke="midnightblue" d="M160.792,-29.5C169.708,-29.5 178.416,-29.5 186.383,-29.5"/>
<polygon fill="midnightblue" stroke="midnightblue" points="160.664,-26.0001 150.664,-29.5 160.664,-33.0001 160.664,-26.0001"/>
</g>
</g>
</svg>
