<?xml version="1.0" encoding="UTF-8" standalone="no"?>
<!DOCTYPE svg PUBLIC "-//W3C//DTD SVG 1.1//EN"
 "http://www.w3.org/Graphics/SVG/1.1/DTD/svg11.dtd">
<!-- Generated by graphviz version 2.38.0 (20140413.2041)
 -->
<!-- Title: Graphical Class Hierarchy Pages: 1 -->
<svg width="257pt" height="37pt"
 viewBox="0.00 0.00 256.90 37.00" xmlns="http://www.w3.org/2000/svg" xmlns:xlink="http://www.w3.org/1999/xlink">
<g id="graph0" class="graph" transform="scale(1 1) rotate(0) translate(4 33)">
<title>Graphical Class Hierarchy</title>
<polygon fill="white" stroke="none" points="-4,4 -4,-33 252.903,-33 252.903,4 -4,4"/>
<!-- Node1 -->
<g id="node1" class="node"><title>Node1</title>
<g id="a_node1"><a xlink:href="d2/d40/classyalla_1_1_i_o_m_m_ptr.html" target="_top" xlink:title="yalla::IOMMPtr\&lt; uint8\l_t, addr \&gt;">
<polygon fill="white" stroke="black" points="0,-0.5 0,-28.5 112.421,-28.5 112.421,-0.5 0,-0.5"/>
<text text-anchor="start" x="8" y="-16.5" font-family="Helvetica,sans-Serif" font-size="10.00">yalla::IOMMPtr&lt; uint8</text>
<text text-anchor="middle" x="56.2104" y="-6.5" font-family="Helvetica,sans-Serif" font-size="10.00">_t, addr &gt;</text>
</a>
</g>
</g>
<!-- Node2 -->
<g id="node2" class="node"><title>Node2</title>
<g id="a_node2"><a xlink:href="d2/d41/classyalla_1_1_data_register.html" target="_top" xlink:title="yalla::DataRegister\l\&lt; addr \&gt;">
<polygon fill="white" stroke="black" points="148.421,-0.5 148.421,-28.5 248.903,-28.5 248.903,-0.5 148.421,-0.5"/>
<text text-anchor="start" x="156.421" y="-16.5" font-family="Helvetica,sans-Serif" font-size="10.00">yalla::DataRegister</text>
<text text-anchor="middle" x="198.662" y="-6.5" font-family="Helvetica,sans-Serif" font-size="10.00">&lt; addr &gt;</text>
</a>
</g>
</g>
<!-- Node1&#45;&gt;Node2 -->
<g id="edge1" class="edge"><title>Node1&#45;&gt;Node2</title>
<path fill="none" stroke="midnightblue" d="M122.937,-14.5C131.374,-14.5 139.899,-14.5 148.021,-14.5"/>
<polygon fill="midnightblue" stroke="midnightblue" points="122.721,-11.0001 112.721,-14.5 122.721,-18.0001 122.721,-11.0001"/>
</g>
</g>
</svg>
