<?xml version="1.0" encoding="UTF-8" standalone="no"?>
<!DOCTYPE svg PUBLIC "-//W3C//DTD SVG 1.1//EN"
 "http://www.w3.org/Graphics/SVG/1.1/DTD/svg11.dtd">
<!-- Generated by graphviz version 2.38.0 (20140413.2041)
 -->
<!-- Title: yalla::StatusBitClearBy0&lt; Reg, idx, regAndMask &gt; Pages: 1 -->
<svg width="140pt" height="232pt"
 viewBox="0.00 0.00 139.62 232.00" xmlns="http://www.w3.org/2000/svg" xmlns:xlink="http://www.w3.org/1999/xlink">
<g id="graph0" class="graph" transform="scale(1 1) rotate(0) translate(4 228)">
<title>yalla::StatusBitClearBy0&lt; Reg, idx, regAndMask &gt;</title>
<polygon fill="white" stroke="none" points="-4,4 -4,-228 135.615,-228 135.615,4 -4,4"/>
<!-- Node1 -->
<g id="node1" class="node"><title>Node1</title>
<polygon fill="#bfbfbf" stroke="black" points="0,-65.5 0,-93.5 131.615,-93.5 131.615,-65.5 0,-65.5"/>
<text text-anchor="start" x="8" y="-81.5" font-family="Helvetica,sans-Serif" font-size="10.00">yalla::StatusBitClearBy0</text>
<text text-anchor="middle" x="65.8076" y="-71.5" font-family="Helvetica,sans-Serif" font-size="10.00">&lt; Reg, idx, regAndMask &gt;</text>
</g>
<!-- Node4 -->
<g id="node4" class="node"><title>Node4</title>
<g id="a_node4"><a xlink:href="../../d6/d87/structyalla_1_1_read_write_bit.html" target="_top" xlink:title="yalla::ReadWriteBit\l\&lt; Reg, idx, regAndMask \&gt;">
<polygon fill="white" stroke="black" points="0,-0.5 0,-28.5 131.615,-28.5 131.615,-0.5 0,-0.5"/>
<text text-anchor="start" x="8" y="-16.5" font-family="Helvetica,sans-Serif" font-size="10.00">yalla::ReadWriteBit</text>
<text text-anchor="middle" x="65.8076" y="-6.5" font-family="Helvetica,sans-Serif" font-size="10.00">&lt; Reg, idx, regAndMask &gt;</text>
</a>
</g>
</g>
<!-- Node1&#45;&gt;Node4 -->
<g id="edge3" class="edge"><title>Node1&#45;&gt;Node4</title>
<path fill="none" stroke="midnightblue" d="M65.8076,-55.1641C65.8076,-46.1693 65.8076,-36.2205 65.8076,-28.5369"/>
<polygon fill="midnightblue" stroke="midnightblue" points="62.3077,-55.4463 65.8076,-65.4464 69.3077,-55.4464 62.3077,-55.4463"/>
</g>
<!-- Node2 -->
<g id="node2" class="node"><title>Node2</title>
<g id="a_node2"><a xlink:href="../../de/d19/structyalla_1_1_read_only_bit.html" target="_top" xlink:title="yalla::ReadOnlyBit\l\&lt; Reg, idx, regAndMask \&gt;">
<polygon fill="white" stroke="black" points="0,-130.5 0,-158.5 131.615,-158.5 131.615,-130.5 0,-130.5"/>
<text text-anchor="start" x="8" y="-146.5" font-family="Helvetica,sans-Serif" font-size="10.00">yalla::ReadOnlyBit</text>
<text text-anchor="middle" x="65.8076" y="-136.5" font-family="Helvetica,sans-Serif" font-size="10.00">&lt; Reg, idx, regAndMask &gt;</text>
</a>
</g>
</g>
<!-- Node2&#45;&gt;Node1 -->
<g id="edge1" class="edge"><title>Node2&#45;&gt;Node1</title>
<path fill="none" stroke="midnightblue" d="M65.8076,-120.164C65.8076,-111.169 65.8076,-101.221 65.8076,-93.5369"/>
<polygon fill="midnightblue" stroke="midnightblue" points="62.3077,-120.446 65.8076,-130.446 69.3077,-120.446 62.3077,-120.446"/>
</g>
<!-- Node3 -->
<g id="node3" class="node"><title>Node3</title>
<g id="a_node3"><a xlink:href="../../d1/d31/structyalla_1_1_reserved_bit.html" target="_top" xlink:title="yalla::ReservedBit\l\&lt; Reg, idx, regAndMask \&gt;">
<polygon fill="white" stroke="black" points="0,-195.5 0,-223.5 131.615,-223.5 131.615,-195.5 0,-195.5"/>
<text text-anchor="start" x="8" y="-211.5" font-family="Helvetica,sans-Serif" font-size="10.00">yalla::ReservedBit</text>
<text text-anchor="middle" x="65.8076" y="-201.5" font-family="Helvetica,sans-Serif" font-size="10.00">&lt; Reg, idx, regAndMask &gt;</text>
</a>
</g>
</g>
<!-- Node3&#45;&gt;Node2 -->
<g id="edge2" class="edge"><title>Node3&#45;&gt;Node2</title>
<path fill="none" stroke="midnightblue" d="M65.8076,-185.164C65.8076,-176.169 65.8076,-166.221 65.8076,-158.537"/>
<polygon fill="midnightblue" stroke="midnightblue" points="62.3077,-185.446 65.8076,-195.446 69.3077,-185.446 62.3077,-185.446"/>
</g>
</g>
</svg>
