<?xml version="1.0" encoding="UTF-8" standalone="no"?>
<!DOCTYPE svg PUBLIC "-//W3C//DTD SVG 1.1//EN"
 "http://www.w3.org/Graphics/SVG/1.1/DTD/svg11.dtd">
<!-- Generated by graphviz version 2.38.0 (20140413.2041)
 -->
<!-- Title: yalla::DataRegister&lt; addr &gt; Pages: 1 -->
<svg width="120pt" height="102pt"
 viewBox="0.00 0.00 120.42 102.00" xmlns="http://www.w3.org/2000/svg" xmlns:xlink="http://www.w3.org/1999/xlink">
<g id="graph0" class="graph" transform="scale(1 1) rotate(0) translate(4 98)">
<title>yalla::DataRegister&lt; addr &gt;</title>
<polygon fill="white" stroke="none" points="-4,4 -4,-98 116.421,-98 116.421,4 -4,4"/>
<!-- Node1 -->
<g id="node1" class="node"><title>Node1</title>
<polygon fill="#bfbfbf" stroke="black" points="5.96924,-0.5 5.96924,-28.5 106.452,-28.5 106.452,-0.5 5.96924,-0.5"/>
<text text-anchor="start" x="13.9692" y="-16.5" font-family="Helvetica,sans-Serif" font-size="10.00">yalla::DataRegister</text>
<text text-anchor="middle" x="56.2104" y="-6.5" font-family="Helvetica,sans-Serif" font-size="10.00">&lt; addr &gt;</text>
</g>
<!-- Node2 -->
<g id="node2" class="node"><title>Node2</title>
<g id="a_node2"><a xlink:href="../../d2/d40/classyalla_1_1_i_o_m_m_ptr.html" target="_top" xlink:title="yalla::IOMMPtr\&lt; uint8\l_t, addr \&gt;">
<polygon fill="white" stroke="black" points="0,-65.5 0,-93.5 112.421,-93.5 112.421,-65.5 0,-65.5"/>
<text text-anchor="start" x="8" y="-81.5" font-family="Helvetica,sans-Serif" font-size="10.00">yalla::IOMMPtr&lt; uint8</text>
<text text-anchor="middle" x="56.2104" y="-71.5" font-family="Helvetica,sans-Serif" font-size="10.00">_t, addr &gt;</text>
</a>
</g>
</g>
<!-- Node2&#45;&gt;Node1 -->
<g id="edge1" class="edge"><title>Node2&#45;&gt;Node1</title>
<path fill="none" stroke="midnightblue" d="M56.2104,-55.1641C56.2104,-46.1693 56.2104,-36.2205 56.2104,-28.5369"/>
<polygon fill="midnightblue" stroke="midnightblue" points="52.7105,-55.4463 56.2104,-65.4464 59.7105,-55.4464 52.7105,-55.4463"/>
</g>
</g>
</svg>
