<?xml version="1.0" encoding="UTF-8" standalone="no"?>
<!DOCTYPE svg PUBLIC "-//W3C//DTD SVG 1.1//EN"
 "http://www.w3.org/Graphics/SVG/1.1/DTD/svg11.dtd">
<!-- Generated by graphviz version 2.38.0 (20140413.2041)
 -->
<!-- Title: yalla::Register::write Pages: 1 -->
<svg width="295pt" height="104pt"
 viewBox="0.00 0.00 295.26 104.00" xmlns="http://www.w3.org/2000/svg" xmlns:xlink="http://www.w3.org/1999/xlink">
<g id="graph0" class="graph" transform="scale(1 1) rotate(0) translate(4 100)">
<title>yalla::Register::write</title>
<polygon fill="white" stroke="none" points="-4,4 -4,-100 291.258,-100 291.258,4 -4,4"/>
<!-- Node1 -->
<g id="node1" class="node"><title>Node1</title>
<polygon fill="#bfbfbf" stroke="black" points="0,-38.5 0,-56.5 106.029,-56.5 106.029,-38.5 0,-38.5"/>
<text text-anchor="middle" x="53.0146" y="-44.5" font-family="Helvetica,sans-Serif" font-size="10.00">yalla::Register::write</text>
</g>
<!-- Node2 -->
<g id="node2" class="node"><title>Node2</title>
<g id="a_node2"><a xlink:href="../../da/d23/classyalla_1_1_atomic_guard_3_01_atomic_policy_1_1_restore_state_01_4.html#a4a7a5469754de8d1ca4a6130c00264f4" target="_top" xlink:title="Destructor, restores old state on object destruction. ">
<polygon fill="white" stroke="black" points="142.029,-57.5 142.029,-95.5 287.258,-95.5 287.258,-57.5 142.029,-57.5"/>
<text text-anchor="start" x="150.029" y="-83.5" font-family="Helvetica,sans-Serif" font-size="10.00">yalla::AtomicGuard</text>
<text text-anchor="start" x="150.029" y="-73.5" font-family="Helvetica,sans-Serif" font-size="10.00">&lt; AtomicPolicy::RestoreState</text>
<text text-anchor="middle" x="214.644" y="-63.5" font-family="Helvetica,sans-Serif" font-size="10.00"> &gt;::~AtomicGuard</text>
</a>
</g>
</g>
<!-- Node1&#45;&gt;Node2 -->
<g id="edge1" class="edge"><title>Node1&#45;&gt;Node2</title>
<path fill="none" stroke="midnightblue" d="M113.772,-58.3562C122.906,-60.0155 132.414,-61.7429 141.775,-63.4435"/>
<polygon fill="midnightblue" stroke="midnightblue" points="114.112,-54.8607 103.647,-56.5168 112.861,-61.748 114.112,-54.8607"/>
</g>
<!-- Node3 -->
<g id="node3" class="node"><title>Node3</title>
<g id="a_node3"><a xlink:href="../../d3/d03/classyalla_1_1_non_atomic_guard_3_01_atomic_policy_1_1_restore_state_01_4.html#a7672ebdaf3303249d75afdbde02bacca" target="_top" xlink:title="Destructor, restores old state on object destruction. ">
<polygon fill="white" stroke="black" points="142.029,-0.5 142.029,-38.5 287.258,-38.5 287.258,-0.5 142.029,-0.5"/>
<text text-anchor="start" x="150.029" y="-26.5" font-family="Helvetica,sans-Serif" font-size="10.00">yalla::NonAtomicGuard</text>
<text text-anchor="start" x="150.029" y="-16.5" font-family="Helvetica,sans-Serif" font-size="10.00">&lt; AtomicPolicy::RestoreState</text>
<text text-anchor="middle" x="214.644" y="-6.5" font-family="Helvetica,sans-Serif" font-size="10.00"> &gt;::~NonAtomicGuard</text>
</a>
</g>
</g>
<!-- Node1&#45;&gt;Node3 -->
<g id="edge2" class="edge"><title>Node1&#45;&gt;Node3</title>
<path fill="none" stroke="midnightblue" d="M115.439,-36.7258C124.133,-35.2008 133.135,-33.6218 142,-32.0667"/>
<polygon fill="midnightblue" stroke="midnightblue" points="114.646,-33.3114 105.401,-38.4865 115.855,-40.2061 114.646,-33.3114"/>
</g>
</g>
</svg>
