<?xml version="1.0" encoding="UTF-8" standalone="no"?>
<!DOCTYPE svg PUBLIC "-//W3C//DTD SVG 1.1//EN"
 "http://www.w3.org/Graphics/SVG/1.1/DTD/svg11.dtd">
<!-- Generated by graphviz version 2.38.0 (20140413.2041)
 -->
<!-- Title: yalla::Register::read Pages: 1 -->
<svg width="294pt" height="104pt"
 viewBox="0.00 0.00 294.16 104.00" xmlns="http://www.w3.org/2000/svg" xmlns:xlink="http://www.w3.org/1999/xlink">
<g id="graph0" class="graph" transform="scale(1 1) rotate(0) translate(4 100)">
<title>yalla::Register::read</title>
<polygon fill="white" stroke="none" points="-4,4 -4,-100 290.159,-100 290.159,4 -4,4"/>
<!-- Node1 -->
<g id="node1" class="node"><title>Node1</title>
<polygon fill="#bfbfbf" stroke="black" points="0,-38.5 0,-56.5 104.931,-56.5 104.931,-38.5 0,-38.5"/>
<text text-anchor="middle" x="52.4653" y="-44.5" font-family="Helvetica,sans-Serif" font-size="10.00">yalla::Register::read</text>
</g>
<!-- Node2 -->
<g id="node2" class="node"><title>Node2</title>
<g id="a_node2"><a xlink:href="../../da/d23/classyalla_1_1_atomic_guard_3_01_atomic_policy_1_1_restore_state_01_4.html#a5e4cdcce555b19b8ddcc01ff6c487cda" target="_top" xlink:title="Constructor, disables interrupts on object creation. ">
<polygon fill="white" stroke="black" points="140.931,-57.5 140.931,-95.5 286.159,-95.5 286.159,-57.5 140.931,-57.5"/>
<text text-anchor="start" x="148.931" y="-83.5" font-family="Helvetica,sans-Serif" font-size="10.00">yalla::AtomicGuard</text>
<text text-anchor="start" x="148.931" y="-73.5" font-family="Helvetica,sans-Serif" font-size="10.00">&lt; AtomicPolicy::RestoreState</text>
<text text-anchor="middle" x="213.545" y="-63.5" font-family="Helvetica,sans-Serif" font-size="10.00"> &gt;::AtomicGuard</text>
</a>
</g>
</g>
<!-- Node1&#45;&gt;Node2 -->
<g id="edge1" class="edge"><title>Node1&#45;&gt;Node2</title>
<path fill="none" stroke="midnightblue" d="M113.017,-58.3562C122.119,-60.0155 131.595,-61.7429 140.924,-63.4435"/>
<polygon fill="midnightblue" stroke="midnightblue" points="113.393,-54.8671 102.927,-56.5168 112.137,-61.7536 113.393,-54.8671"/>
</g>
<!-- Node3 -->
<g id="node3" class="node"><title>Node3</title>
<g id="a_node3"><a xlink:href="../../d3/d03/classyalla_1_1_non_atomic_guard_3_01_atomic_policy_1_1_restore_state_01_4.html#ac511dae8c3d17e24cf72da4f20f1762f" target="_top" xlink:title="Constructor, enables interrupts on object creation. ">
<polygon fill="white" stroke="black" points="140.931,-0.5 140.931,-38.5 286.159,-38.5 286.159,-0.5 140.931,-0.5"/>
<text text-anchor="start" x="148.931" y="-26.5" font-family="Helvetica,sans-Serif" font-size="10.00">yalla::NonAtomicGuard</text>
<text text-anchor="start" x="148.931" y="-16.5" font-family="Helvetica,sans-Serif" font-size="10.00">&lt; AtomicPolicy::RestoreState</text>
<text text-anchor="middle" x="213.545" y="-6.5" font-family="Helvetica,sans-Serif" font-size="10.00"> &gt;::NonAtomicGuard</text>
</a>
</g>
</g>
<!-- Node1&#45;&gt;Node3 -->
<g id="edge2" class="edge"><title>Node1&#45;&gt;Node3</title>
<path fill="none" stroke="midnightblue" d="M114.599,-36.7398C123.193,-35.227 132.091,-33.6609 140.86,-32.1174"/>
<polygon fill="midnightblue" stroke="midnightblue" points="113.917,-33.3059 104.675,-38.4865 115.13,-40.2 113.917,-33.3059"/>
</g>
</g>
</svg>
